# xmcd
#
# Track frame offsets:
# 150
# 17515
# 29626
# 46068
# 58262
# 73730
# 90897
# 103716
#
# Disc length: 1543 seconds
#
#
# Revision: 0
# Processed by: cddbd v1.5.2PL0 Copyright (c) Steve Scherf et al.
# Submitted via: FreeRIP 2.951 
#
DISCID=61060508
DTITLE=Bobby Goldsboro - Bobby Goldsboro - Honey
DYEAR=1900
DGENRE=Vocal
TTITLE0=Honey
TTITLE1=Watchin' Scotty Grow
TTITLE2=Autumn of My Life
TTITLE3=Muddy Mississippi Line
TTITLE4=I'm a Drifter
TTITLE5=A Butterfly for Becky
TTITLE6=The Straight Life
TTITLE7=See the Funny Little Clown
EXTD=CBUJ 0619
EXTT0=
EXTT1=
EXTT2=
EXTT3=
EXTT4=
EXTT5=
EXTT6=
EXTT7=
PLAYORDER=
